<svg xmlns="http://www.w3.org/2000/svg" fill="none" viewBox="0 0 47 48"><defs/><path fill="#00C7EF" d="M42.499 4.337c-5.782-5.783-15.157-5.783-20.94 0-4.556 4.557-5.506 11.337-2.881 16.84l-5.261 5.26a3.276 3.276 0 00-.84 3.17l-2.65 2.648a1.64 1.64 0 00-2.326 0l-2.326 2.327a1.644 1.644 0 000 2.327L4.111 38.07a1.645 1.645 0 00-2.326 0L.622 39.235a1.644 1.644 0 000 2.327c.02.021.048.027.068.044a4.113 4.113 0 006.33 5.19l18.64-18.64c5.504 2.627 12.285 1.676 16.84-2.883 5.78-5.78 5.78-15.154-.001-20.936zm-2.326 6.98a3.292 3.292 0 01-4.653 0 3.292 3.292 0 010-4.655 3.292 3.292 0 014.653 0 3.292 3.292 0 010 4.654z"/></svg>