<svg xmlns="http://www.w3.org/2000/svg" fill="none" viewBox="0 0 48 48"><defs/><path fill="#00C7EF" d="M24 48c13.255 0 24-10.745 24-24S37.255 0 24 0 0 10.745 0 24s10.745 24 24 24z"/><path fill="#F2F2F2" d="M34.087 15.06c-2.822 0-5.594 1.763-7.732 3.616a28.117 28.117 0 011.529 1.819c.23.302.564.712.977 1.176 1.648-1.446 3.586-2.726 5.226-2.726A5.059 5.059 0 0139.14 24a5.059 5.059 0 01-5.053 5.053c-3.116 0-7.312-4.608-8.536-6.224-.6-.795-6.028-7.768-11.639-7.768-4.93 0-8.94 4.01-8.94 8.94s4.01 8.939 8.94 8.939c2.74 0 5.43-1.664 7.543-3.459a28.017 28.017 0 01-1.674-1.977 19.7 19.7 0 00-.832-1.01c-1.605 1.376-3.458 2.56-5.037 2.56a5.059 5.059 0 01-5.053-5.054 5.059 5.059 0 015.053-5.054c3.117 0 7.312 4.608 8.536 6.224.6.795 6.028 7.768 11.639 7.768 4.929 0 8.938-4.009 8.938-8.938.002-4.928-4.008-8.939-8.938-8.939z"/></svg>